# xmcd
#
# Track frame offsets:
# 150
# 17320
# 36550
# 57590
# 76727
# 98050
# 114060
# 132715
# 157697
# 175237
# 194915
# 213307
#
# Disc length: 3133 seconds
#
#
# Revision: 0
# Processed by: cddbd v1.5.2PL0 Copyright (c) Steve Scherf et al.
# Submitted via: FreeRIP 2.942 
#
DISCID=9b0c3b0c
DTITLE=Zé Ramalho - O Gosto da Criação
DYEAR=2002
DGENRE=Other
TTITLE0=O gosto da criação
TTITLE1=A única coisa que eu quero
TTITLE2=Aprendendo a vencer
TTITLE3=Tudo que fiz foi viver
TTITLE4=O silêncio dos inocentes
TTITLE5=O que vale pra sempre
TTITLE6=Coisas boas e más
TTITLE7=Fissura
TTITLE8=Luz da excelência
TTITLE9=Modificando o olhar
TTITLE10=É praticando na vida que muito vai aprender
TTITLE11=O apocalipse de Zé Limeira
EXTD=
EXTT0=
EXTT1=
EXTT2=
EXTT3=
EXTT4=
EXTT5=
EXTT6=
EXTT7=
EXTT8=
EXTT9=
EXTT10=
EXTT11=
PLAYORDER=
